# xmcd
#
# Track frame offsets:
#	150
#	17208
#	34711
#	49425
#	66059
#	83787
#	98310
#	117009
#	127959
#	142105
#	162998
#	190400
#	209185
#	225804
#	248768
#	265280
#	292027
#	305402
#	322069
#	340586
#
# Disc length: 4731 seconds
#
# Revision: 1
# Processed by: cddbd v1.5.2PL0 Copyright (c) Steve Scherf et al.
# Submitted via: EasyCDDAExtractor 2010.6.0.0
#
DISCID=20127914
DTITLE=Various Artist - Magic Of The Seventies cd 2
DYEAR=2013
DGENRE=Pop
TTITLE0=Dire Straits - Lady Writer
TTITLE1=Electric Light Orchestra - Showdown
TTITLE2=Elton John - Goodbye Yellow Brick Road
TTITLE3=Cat Stevens - Father And Son
TTITLE4=Donna Summer - Could It Be Magic
TTITLE5=Dr. Hook - A Little Bit More
TTITLE6=Ralph Mctell - Streets Of London
TTITLE7=Desmond Dekker - You Can Get It If You Really Want 
TTITLE8=Shirts - Tell Me Your Plans
TTITLE9=Emerson, Lake and Palmer - Lucky Man
TTITLE10=Boston - Don't Look Back
TTITLE11=The Hollies - Sandy (4th July, Asbury Park)
TTITLE12=McGuinness Flint - When I'm Dead And Gone
TTITLE13=Meat Loaf - You Took The Words Right Out Of My Mouth
TTITLE14=Aphrodite's Child - Such A Funny Night
TTITLE15=Steely Dan - Do It Again
TTITLE16=Yvonne Elliman - If I Can't Have You
TTITLE17=The Who - Behind Blue Eyes
TTITLE18=Smokie - Lay Back In The Arms Of Someone
TTITLE19=Jim Croce - I Got A Name
EXTD=
EXTT0=
EXTT1=
EXTT2=
EXTT3=
EXTT4=
EXTT5=
EXTT6=
EXTT7=
EXTT8=
EXTT9=
EXTT10=
EXTT11=
EXTT12=
EXTT13=
EXTT14=
EXTT15=
EXTT16=
EXTT17=
EXTT18=
EXTT19=
PLAYORDER=
